<svg width="400" height="300" viewBox="0 0 400 300" fill="none" xmlns="http://www.w3.org/2000/svg">
  <!-- Background -->
  <rect width="400" height="300" fill="#F8FAFC" />
  
  <!-- Clipboard -->
  <rect x="100" y="50" width="200" height="220" rx="10" fill="white" stroke="#E2E8F0" stroke-width="2"/>
  <rect x="120" y="30" width="160" height="40" rx="5" fill="#3B82F6" />
  <path d="M140 40H240" stroke="white" stroke-width="2" stroke-linecap="round"/>
  <path d="M140 45H240" stroke="white" stroke-width="2" stroke-linecap="round"/>
  <path d="M140 50H240" stroke="white" stroke-width="2" stroke-linecap="round"/>
  
  <!-- Checklist Items -->
  <!-- Item 1 -->
  <rect x="130" y="90" width="20" height="20" rx="4" fill="#ECFDF5" stroke="#10B981" stroke-width="2"/>
  <path d="M135 100L143 108M143 100L135 108" stroke="#10B981" stroke-width="2" stroke-linecap="round"/>
  <rect x="160" y="95" width="120" height="10" rx="5" fill="#E2E8F0"/>
  
  <!-- Item 2 (Completed) -->
  <rect x="130" y="130" width="20" height="20" rx="4" fill="#10B981" stroke="#10B981" stroke-width="2"/>
  <path d="M135 137L140 142L150 132" stroke="white" stroke-width="2" stroke-linecap="round"/>
  <rect x="160" y="135" width="100" height="10" rx="5" fill="#E2E8F0"/>
  
  <!-- Item 3 -->
  <rect x="130" y="170" width="20" height="20" rx="4" fill="#ECFDF5" stroke="#10B981" stroke-width="2"/>
  <rect x="160" y="175" width="140" height="10" rx="5" fill="#E2E8F0"/>
  
  <!-- Item 4 -->
  <rect x="130" y="210" width="20" height="20" rx="4" fill="#ECFDF5" stroke="#10B981" stroke-width="2"/>
  <rect x="160" y="215" width="80" height="10" rx="5" fill="#E2E8F0"/>
  
  <!-- Decorative Elements -->
  <circle cx="320" cy="80" r="30" fill="#93C5FD" opacity="0.3"/>
  <circle cx="50" cy="220" r="40" fill="#A5B4FC" opacity="0.3"/>
  <path d="M350 200L380 230M380 200L350 230" stroke="#F59E0B" stroke-width="3" stroke-linecap="round"/>
</svg>